<svg version="1.1" id="Capa_1" xmlns="http://www.w3.org/2000/svg" xmlns:xlink="http://www.w3.org/1999/xlink" x="0px" y="0px"
   width="99px" height="99px" viewBox="0 0 99 99" enable-background="new 0 0 99 99" xml:space="preserve">
<path fill="#0085A1" d="M33,64h33v-6H33V64z M33,55h33v-6H33V55z M33,73h33v-6H33V73z M50,36.9997c-0.5522,0-1,0.4473-1,1v3.5859
  l-1.293-1.293c-0.3906-0.3906-1.0234-0.3906-1.4141,0s-0.3906,1.0234,0,1.4141l2.9993,2.9993
  c0.0923,0.0925,0.2031,0.1658,0.3257,0.2166c0.1222,0.0505,0.2518,0.0771,0.382,0.0771s0.2598-0.0266,0.382-0.0771
  c0.1226-0.0508,0.2333-0.124,0.3257-0.2166l2.9993-2.9993c0.3906-0.3906,0.3906-1.0234,0-1.4141s-1.0234-0.3906-1.4141,0L51,41.5856
  v-3.5859C51,37.447,50.5522,36.9997,50,36.9997z M33,34h33v-6H33V34z M0,0v99h99V0H0z M72,75c0,2.2-1.8,4-4,4H31c-2.2,0-4-1.8-4-4
  V25c0-2.2,1.8-4,4-4h37c2.2,0,4,1.8,4,4V75z"/>
</svg>
